<?xml version="1.0" encoding="UTF-8" standalone="no"?>
<svg
   width="497.18753"
   height="499.55045"
   viewBox="0 0 497.18753 499.55044"
   fill="none"
   version="1.1"
   id="svg4"
   sodipodi:docname="wp-connectr-icon.svg"
   inkscape:version="1.3.2 (091e20e, 2023-11-25, custom)"
   inkscape:export-filename="wp-connectr-icon.png"
   inkscape:export-xdpi="96"
   inkscape:export-ydpi="96"
   xmlns:inkscape="http://www.inkscape.org/namespaces/inkscape"
   xmlns:sodipodi="http://sodipodi.sourceforge.net/DTD/sodipodi-0.dtd"
   xmlns="http://www.w3.org/2000/svg"
   xmlns:svg="http://www.w3.org/2000/svg">
  <defs
     id="defs4" />
  <sodipodi:namedview
     id="namedview4"
     pagecolor="#ffffff"
     bordercolor="#000000"
     borderopacity="0.25"
     inkscape:showpageshadow="2"
     inkscape:pageopacity="0.0"
     inkscape:pagecheckerboard="0"
     inkscape:deskcolor="#d1d1d1"
     inkscape:zoom="2.5724545"
     inkscape:cx="173.37527"
     inkscape:cy="289.99541"
     inkscape:window-width="3840"
     inkscape:window-height="2054"
     inkscape:window-x="-11"
     inkscape:window-y="2149"
     inkscape:window-maximized="1"
     inkscape:current-layer="svg4"
     showguides="true" />
  <rect
     width="500"
     height="500"
     fill="#abd6fb"
     id="rect1"
     x="-2.8238432"
     y="-0.23041029"
     style="display:none" />
  <path
     d="m 326.77347,133.28626 h 102.79615 l -77.582,236.6251 h -104.7357 z"
     fill="#6bbafd"
     id="path1"
     style="stroke-width:1.55164" />
  <path
     d="M 280.22427,133.28626 H 177.42812 l 77.582,236.6251 h 104.7357 z"
     fill="#2f7ff0"
     id="path2"
     style="stroke-width:1.55164" />
  <path
     d="M 163.85127,133.28626 H 61.055118 l 77.582002,236.6251 h 104.73571 z"
     fill="#104cc8"
     id="path3"
     style="stroke-width:1.55164" />
  <path
     d="m 425.65173,110.01166 h -88.59864 c -12.21917,0 -22.8479,8.2237 -25.95118,20.01616 l -5.39195,16.13705 -5.39195,-16.13705 c -3.10328,-11.79246 -13.7708,-19.97737 -25.95118,-19.97737 H 68.541781 c -8.340065,0 -16.214637,3.8791 -21.296258,10.47357 -5.081621,6.59447 -6.827216,15.20608 -4.693711,23.2746 l 75.409708,226.15153 c 3.10328,11.79247 13.7708,19.97737 25.95117,19.97737 h 117.45916 c 0,0 0.15516,0 0.23274,0 h 88.55986 c 0.54307,0 1.00856,-0.11638 1.55164,-0.11638 0.46549,0 0.93098,-0.0776 1.39647,-0.11637 10.93906,-1.20252 20.17132,-8.96072 23.00307,-19.74462 l 75.21574,-225.37571 c 0.69824,-2.44383 1.08615,-5.04283 1.08615,-7.68061 0,-14.81817 -12.02521,-26.84338 -26.80458,-26.84338 z m -151.2849,26.88217 29.67512,88.98655 1.66801,5.04283 44.06658,132.12214 h -88.55986 l -7.68061,-23.00306 -67.7291,-203.14846 h 88.59865 z M 143.95148,363.04535 68.541781,136.89383 h 88.598639 l 75.40972,226.15152 z m 220.17773,-41.66153 -44.29932,-132.85917 17.2232,-51.63082 h 88.55985 z"
     fill="#000000"
     id="path4"
     style="stroke-width:1.55164" />
</svg>
